<?xml version="1.0" standalone="no"?>
<!DOCTYPE svg PUBLIC "-//W3C//DTD SVG 20010904//EN"
 "http://www.w3.org/TR/2001/REC-SVG-20010904/DTD/svg10.dtd">
<svg version="1.0" xmlns="http://www.w3.org/2000/svg"
 width="350.000000pt" height="350.000000pt" viewBox="0 0 350.000000 350.000000"
 preserveAspectRatio="xMidYMid meet">
<metadata>
Created by potrace 1.11, written by Peter Selinger 2001-2013
</metadata>
<g transform="translate(0.000000,350.000000) scale(0.100000,-0.100000)"
fill="#000000" stroke="none">
<path d="M1147 3252 c4 -28 -6 -74 -36 -168 -56 -180 -98 -347 -105 -424 -11
-110 -15 -133 -40 -204 -29 -83 -28 -140 5 -358 26 -176 22 -244 -25 -428 -71
-276 -71 -357 -3 -498 31 -64 107 -159 218 -272 87 -88 159 -148 319 -265 126
-92 422 -325 499 -393 19 -16 39 -28 45 -26 6 2 22 5 36 8 33 5 157 43 175 54
11 6 -1 24 -49 77 -35 39 -61 74 -58 79 3 5 0 6 -5 3 -6 -4 -21 6 -34 22 -13
15 -49 56 -79 91 -30 34 -54 67 -52 72 1 5 -1 7 -6 4 -5 -3 -16 4 -25 15 -20
22 -22 33 -5 23 7 -4 8 -3 4 5 -4 6 -11 9 -16 6 -11 -7 -33 22 -25 34 4 7 -1
8 -11 4 -13 -5 -16 -3 -11 10 4 12 2 14 -11 10 -9 -3 -14 -2 -10 2 5 5 -1 15
-13 23 -12 9 -19 22 -16 32 3 12 0 17 -8 14 -12 -5 -88 87 -79 96 3 2 10 -2
15 -10 9 -13 10 -13 6 0 -2 8 -13 16 -24 18 -12 2 -24 10 -27 18 -4 10 -2 12
6 8 7 -4 8 -3 4 4 -4 7 -13 12 -19 12 -11 0 -30 22 -37 45 -2 6 -16 23 -31 39
-15 17 -25 34 -22 39 3 6 11 3 18 -6 7 -9 15 -14 19 -10 4 4 4 0 0 -10 -4 -11
-1 -17 7 -17 7 0 9 3 6 7 -8 8 11 33 25 33 6 0 5 -7 -2 -15 -7 -8 -9 -15 -4
-15 5 0 2 -5 -6 -10 -13 -9 -13 -12 3 -21 9 -5 17 -15 17 -20 0 -6 -5 -7 -12
-3 -7 4 -8 3 -4 -5 10 -15 29 -3 22 14 -3 8 1 19 9 25 11 9 14 7 13 -12 -1
-13 -5 -28 -10 -34 -11 -14 15 -26 40 -18 14 5 14 3 -2 -10 -11 -9 -16 -16
-11 -16 5 0 19 10 32 22 25 23 33 9 8 -16 -17 -16 -19 -26 -7 -26 5 0 14 11
20 25 6 14 16 25 22 25 8 0 7 -6 0 -20 -7 -14 -7 -20 0 -20 5 0 10 7 10 16 0
8 5 12 10 9 6 -3 10 -1 10 5 0 6 5 8 10 5 6 -4 8 -10 5 -15 -9 -15 35 -34 48
-21 20 20 31 12 12 -9 -10 -11 -14 -20 -8 -20 5 0 18 -7 29 -15 15 -11 16 -14
3 -15 -8 0 -26 10 -39 22 -18 17 -22 18 -17 5 4 -10 0 -20 -11 -26 -14 -9 -14
-11 -2 -12 8 -1 18 -1 23 0 4 0 7 -3 7 -9 0 -5 5 -10 12 -10 6 0 3 9 -7 20
-10 11 -13 20 -7 20 6 0 14 -5 18 -11 3 -6 15 -8 26 -6 12 3 22 0 25 -10 5
-12 7 -12 14 -1 13 20 11 29 -7 26 -10 -2 -19 2 -21 8 -2 5 9 10 24 10 22 -1
28 4 29 22 1 19 -1 20 -14 10 -16 -14 -16 -14 4 37 3 8 1 15 -6 15 -7 0 -9 8
-5 20 3 11 3 25 -1 32 -5 7 -8 30 -7 51 1 26 -4 40 -14 44 -12 5 -12 7 -1 14
10 7 10 11 -4 21 -12 10 -14 18 -7 33 9 19 9 18 5 -2 -2 -13 0 -23 6 -23 6 0
8 19 6 45 -2 26 1 45 7 45 5 0 3 5 -5 10 -12 7 -12 10 -1 10 7 0 22 11 33 25
11 14 26 25 34 25 8 0 13 4 10 8 -2 4 30 3 72 -2 173 -21 228 -8 305 72 170
177 203 231 172 278 -19 30 -73 83 -175 174 -40 36 -76 76 -81 89 -5 13 -14
58 -20 100 -13 99 -37 145 -105 212 -90 87 -93 90 -99 119 -4 18 5 61 25 121
73 222 134 464 144 569 l5 55 -23 -28 c-21 -26 -114 -176 -237 -386 -60 -101
-113 -167 -149 -186 -49 -25 -269 -6 -340 30 -43 22 -59 48 -94 151 -36 108
-77 215 -107 281 -10 24 -19 45 -19 48 0 14 -96 204 -117 232 -35 45 -52 43
-46 -5z m223 -1668 c0 -8 -19 -13 -24 -6 -3 5 1 9 9 9 8 0 15 -2 15 -3z m0
-66 c0 -4 -4 -8 -9 -8 -6 0 -12 4 -15 8 -3 5 1 9 9 9 8 0 15 -4 15 -9z m120
-32 c0 -2 -7 -7 -16 -10 -8 -3 -12 -2 -9 4 6 10 25 14 25 6z m57 -11 c0 -8 -4
-12 -9 -9 -5 3 -6 10 -3 15 9 13 12 11 12 -6z m-101 -10 c-1 -8 -5 -17 -8 -21
-5 -4 -4 16 1 34 3 9 9 -1 7 -13z m55 -12 c13 -16 12 -17 -3 -4 -17 13 -22 21
-14 21 2 0 10 -8 17 -17z m-111 -13 c0 -5 -2 -10 -4 -10 -3 0 -8 5 -11 10 -3
6 -1 10 4 10 6 0 11 -4 11 -10z m216 -5 c-1 -8 -5 -17 -8 -21 -5 -4 -4 16 1
34 3 9 9 -1 7 -13z m-176 -19 c0 -8 -5 -18 -10 -21 -6 -4 -7 -11 -4 -17 5 -7
2 -8 -5 -3 -9 5 -10 10 -2 18 18 18 12 31 -6 16 -16 -13 -17 -12 -4 4 16 21
31 22 31 3z m110 -1 c11 -13 10 -14 -5 -9 -12 5 -16 4 -12 -3 8 -13 -19 -11
-30 2 -4 4 -2 5 5 1 7 -4 15 -1 18 8 8 20 9 20 24 1z m-68 -9 c7 4 8 2 4 -5
-9 -13 -26 -5 -25 12 0 9 2 8 6 -1 2 -6 10 -9 15 -6z m141 -17 c10 8 14 7 14
-2 0 -19 -34 -18 -49 1 -12 15 -11 16 5 3 12 -10 20 -11 30 -2z m55 -14 c-3
-3 -9 2 -12 12 -6 14 -5 15 5 6 7 -7 10 -15 7 -18z m-214 7 c2 -4 1 -14 -5
-22 -5 -8 -9 -10 -9 -5 0 6 -5 3 -10 -5 -7 -10 -10 -11 -10 -2 0 7 7 15 16 19
13 5 13 7 2 14 -9 6 -9 9 -1 9 6 0 14 -4 17 -8z m96 -2 c0 -5 -5 -10 -11 -10
-5 0 -7 5 -4 10 3 6 8 10 11 10 2 0 4 -4 4 -10z m217 -7 c0 -9 -4 -10 -14 -2
-7 6 -13 12 -13 14 0 1 6 2 13 2 8 0 14 -6 14 -14z m-241 -14 c3 -5 -2 -6 -12
-2 -15 5 -15 3 -3 -18 8 -13 14 -31 15 -39 3 -28 9 -45 19 -52 27 -20 32 7 5
29 -12 9 -12 16 -4 30 13 21 40 24 36 4 -2 -10 4 -12 25 -6 21 5 25 4 17 -5
-15 -15 -50 -8 -46 9 1 7 -3 11 -10 9 -7 -3 -15 -13 -16 -23 -3 -10 0 -15 7
-11 10 7 16 -6 12 -27 -1 -5 4 -7 11 -4 7 2 12 9 11 15 -4 17 25 3 32 -16 5
-15 8 -13 19 7 8 14 24 26 37 28 18 2 20 1 9 -6 -8 -5 -17 -8 -21 -6 -3 3 -11
-6 -17 -19 -19 -43 25 -63 52 -24 9 12 19 18 23 14 4 -4 0 -12 -10 -17 -9 -6
-15 -15 -11 -21 4 -7 10 -5 16 3 7 11 8 9 6 -5 -2 -10 3 -21 10 -23 8 -3 10 2
6 14 -5 14 -4 15 4 4 8 -11 15 -10 41 8 17 12 31 18 31 12 0 -6 -5 -11 -11
-11 -8 0 -8 -4 0 -14 8 -10 9 -16 1 -21 -6 -4 -9 -1 -8 6 2 6 -2 13 -9 16 -7
3 -9 -3 -6 -16 3 -12 1 -21 -5 -21 -5 0 -9 -8 -8 -17 0 -10 -5 -17 -11 -16
-19 4 -16 -11 6 -24 16 -10 19 -9 19 13 0 14 10 33 25 44 15 12 24 27 20 35
-3 8 -3 15 0 15 17 0 12 -33 -9 -54 l-26 -25 26 5 c15 2 26 0 26 -6 0 -6 -4
-8 -10 -5 -5 3 -10 2 -10 -2 0 -5 9 -14 19 -20 18 -11 19 -10 16 15 -2 15 -4
31 -4 35 -1 5 -6 5 -13 1 -7 -5 -8 -3 -3 6 6 10 11 10 20 -3 7 -9 16 -13 21
-9 4 4 2 -1 -5 -11 -20 -26 -6 -32 20 -8 12 11 25 19 27 16 3 -2 -6 -13 -19
-24 -13 -11 -19 -20 -13 -21 5 0 15 5 22 12 9 9 12 9 12 0 0 -7 -6 -12 -12
-12 -8 0 -9 -3 -3 -8 6 -4 19 -18 30 -32 15 -19 16 -22 3 -11 -11 8 -18 9 -18
3 0 -6 10 -18 22 -26 12 -9 17 -16 10 -16 -6 0 -12 -5 -12 -11 0 -5 5 -7 12
-3 7 4 8 3 4 -5 -4 -6 -3 -18 3 -25 9 -11 8 -18 -4 -29 -9 -10 -11 -18 -5 -22
19 -12 10 -22 -20 -23 -30 -1 -40 11 -20 23 8 5 7 11 -1 21 -9 11 -9 14 1 14
8 0 10 3 6 7 -4 4 -15 -3 -25 -16 -15 -19 -22 -22 -37 -13 -10 6 -18 13 -16
16 7 16 0 27 -13 22 -25 -9 -60 10 -62 34 -1 16 1 19 11 11 7 -6 16 -8 19 -4
4 3 7 1 7 -4 0 -6 -3 -13 -7 -16 -5 -2 -2 -2 5 -1 6 2 12 -2 13 -9 0 -7 4 -3
8 8 5 11 13 20 20 20 6 0 10 5 9 10 -2 6 -6 9 -10 8 -4 -2 -5 4 -2 12 7 18 -7
20 -25 3 -8 -7 -11 -8 -8 -3 3 6 1 17 -4 25 -8 12 -9 11 -7 -4 2 -12 -4 -20
-15 -22 -15 -2 -16 0 -6 12 17 20 3 30 -18 13 -9 -8 -14 -9 -10 -3 3 6 0 11
-8 11 -14 0 -19 -10 -16 -29 0 -5 -3 -8 -8 -8 -6 0 -9 9 -8 20 1 11 6 20 11
20 5 0 6 3 3 6 -10 10 -36 -16 -31 -30 3 -7 -2 -19 -11 -26 -10 -8 -15 -9 -15
-1 0 6 6 11 13 11 9 0 8 3 -2 9 -9 6 -10 10 -2 16 9 5 9 10 0 21 -12 15 -30
19 -28 7 4 -22 -3 -24 -27 -8 -14 9 -28 14 -31 11 -6 -6 -49 51 -52 69 -1 6
-12 20 -23 33 -12 12 -18 22 -13 22 4 0 0 9 -10 20 -10 11 -15 20 -11 20 4 0
-6 17 -23 37 -17 20 -28 39 -24 42 3 3 8 0 10 -7 3 -6 9 -10 13 -7 5 3 7 12 3
20 -3 8 0 15 6 15 6 0 10 -5 9 -11 -2 -6 7 -18 20 -26 14 -10 22 -11 22 -4 0
6 -7 14 -15 17 -8 4 -13 10 -10 14 3 5 -2 13 -11 18 -14 8 -12 10 10 10 14 0
29 -4 32 -9z m80 -7 c-10 -2 -22 0 -28 6 -6 6 0 7 19 4 21 -5 23 -7 9 -10z
m-41 -2 c3 -6 -1 -7 -9 -4 -18 7 -21 14 -7 14 6 0 13 -4 16 -10z m85 -15 c-7
-8 -17 -15 -23 -15 -6 0 -2 7 9 15 25 19 30 19 14 0z m33 -22 c-3 -7 -6 -13
-8 -13 -2 0 -5 6 -8 13 -3 8 1 14 8 14 7 0 11 -6 8 -14z m-35 -23 c-7 -10 -14
-17 -17 -15 -4 4 18 35 25 35 2 0 -1 -9 -8 -20z m186 11 c-7 -8 -54 -9 -59 -2
-2 4 12 7 30 7 19 0 32 -3 29 -5z m-104 -21 c0 -5 -2 -10 -4 -10 -3 0 -8 5
-11 10 -3 6 -1 10 4 10 6 0 11 -4 11 -10z m32 -14 c7 4 8 2 4 -4 -11 -18 -26
-14 -25 6 0 10 3 12 6 4 2 -6 10 -9 15 -6z m-57 -6 c-3 -5 -11 -10 -16 -10 -6
0 -7 5 -4 10 3 6 11 10 16 10 6 0 7 -4 4 -10z m88 -21 c-8 -8 -13 -7 -18 2 -5
8 -4 10 3 5 7 -4 12 -2 12 5 0 7 3 9 7 6 4 -4 2 -12 -4 -18z m-111 -3 c7 4 8
2 4 -5 -9 -13 -26 -5 -25 12 0 9 2 8 6 -1 2 -6 10 -9 15 -6z m168 4 c0 -5 -4
-10 -10 -10 -5 0 -10 5 -10 10 0 6 5 10 10 10 6 0 10 -4 10 -10z m-80 -20 c0
-5 -7 -7 -15 -4 -8 4 -15 8 -15 10 0 2 7 4 15 4 8 0 15 -4 15 -10z m94 -16 c3
-8 2 -12 -4 -9 -6 3 -10 10 -10 16 0 14 7 11 14 -7z m64 -9 c-3 -3 -9 2 -12
12 -6 14 -5 15 5 6 7 -7 10 -15 7 -18z m-35 -2 c-4 -11 -3 -14 5 -9 8 5 10 1
5 -10 -5 -13 -3 -15 7 -9 9 6 11 4 5 -5 -6 -10 -11 -10 -20 3 -7 9 -16 13 -20
9 -4 -4 -2 3 4 16 14 26 23 30 14 5z m60 -103 c3 -11 1 -18 -4 -14 -5 3 -9 12
-9 20 0 20 7 17 13 -6z m-180 -42 c-4 -7 -8 -17 -8 -23 0 -5 -8 -9 -16 -9 -9
1 -16 -4 -16 -10 1 -29 -4 -46 -12 -46 -13 0 -7 45 7 63 7 8 8 18 4 22 -4 5 1
5 10 2 10 -3 20 -2 23 3 4 6 8 10 11 10 3 0 2 -6 -3 -12z m62 -25 c-2 -10 -4
-20 -4 -22 -1 -2 -7 2 -14 8 -8 6 -16 8 -19 5 -3 -3 -9 -1 -12 5 -4 6 2 8 14
6 11 -2 22 0 25 6 9 14 14 11 10 -8z m-75 -33 c-11 -7 -11 -10 -2 -10 7 0 10
-5 6 -11 -4 -7 -10 -7 -16 -1 -12 12 -2 32 15 32 7 0 6 -4 -3 -10z"/>
<path d="M1464 1309 c-3 -6 4 -21 17 -35 12 -13 19 -24 14 -24 -4 0 0 -9 10
-20 10 -11 14 -20 10 -20 -5 0 1 -10 13 -22 11 -13 21 -26 21 -31 1 -17 34
-56 43 -51 5 3 22 -5 36 -17 15 -13 24 -20 20 -15 -4 5 -3 15 3 23 10 11 14
10 26 -7 12 -16 18 -18 28 -10 8 7 20 8 27 4 38 -24 60 -4 23 20 -23 15 -24
15 -19 -1 5 -15 4 -16 -5 -3 -10 13 -12 13 -22 0 -9 -13 -10 -12 -5 3 3 11 2
16 -4 12 -6 -3 -10 -2 -10 3 0 6 -7 13 -16 16 -10 4 -13 2 -8 -7 5 -9 4 -9 -6
0 -19 18 -6 27 19 13 12 -6 21 -8 21 -6 0 3 -9 10 -19 16 -21 11 -54 3 -46
-10 3 -5 0 -12 -6 -16 -8 -5 -9 -3 -4 7 7 11 5 11 -10 -1 -17 -13 -18 -13 -11
0 4 8 0 6 -8 -4 -9 -11 -16 -15 -16 -9 0 7 5 15 10 18 8 5 7 11 -1 21 -6 7
-15 12 -19 9 -4 -3 -7 3 -6 13 1 11 -5 16 -18 14 -11 -2 -15 1 -11 7 3 6 13
11 21 11 8 0 14 6 14 13 0 8 4 7 10 -3 6 -10 10 -11 10 -2 0 6 5 12 10 12 6 0
9 -5 8 -11 -2 -6 3 -14 10 -16 8 -3 10 1 5 14 -4 12 0 10 15 -7 12 -14 21 -20
22 -14 0 6 -13 22 -28 36 -25 22 -30 23 -49 11 -17 -11 -26 -12 -43 -3 -11 6
-17 16 -14 22 5 7 2 8 -6 3 -10 -6 -12 -4 -7 8 7 19 -38 53 -49 36z m31 -20
c11 -16 1 -19 -13 -3 -7 8 -8 14 -3 14 5 0 13 -5 16 -11z m53 -64 c1 -1 -5 -8
-15 -16 -13 -11 -15 -11 -9 -1 5 8 1 19 -10 28 -17 14 -17 14 6 3 14 -6 26
-13 28 -14z m37 -77 c4 -3 2 -9 -3 -12 -5 -3 -15 1 -21 8 -10 11 -9 14 3 12 9
-1 18 -5 21 -8z m69 -27 c3 -5 0 -14 -8 -20 -10 -9 -17 -7 -27 6 -8 9 -9 14
-2 10 6 -4 14 -3 18 3 8 12 12 13 19 1z m36 -21 c6 -11 8 -20 6 -20 -3 0 -10
9 -16 20 -6 11 -8 20 -6 20 3 0 10 -9 16 -20z"/>
<path d="M1570 1200 c0 -4 10 -20 22 -35 18 -23 23 -25 32 -13 16 21 56 15 77
-11 14 -18 22 -20 37 -12 11 6 22 7 26 4 3 -3 6 -2 6 3 0 6 -6 16 -12 23 -11
10 -10 12 1 9 7 -2 16 3 18 10 4 11 -2 10 -25 -2 -16 -8 -32 -12 -36 -9 -3 4
-6 0 -6 -8 0 -11 -2 -11 -10 1 -12 18 -14 40 -2 25 4 -5 14 -11 22 -13 11 -3
9 2 -5 16 -18 18 -23 18 -42 6 -14 -9 -24 -10 -28 -4 -4 6 -11 8 -16 5 -5 -4
-15 -3 -21 2 -18 11 -38 13 -38 3z m46 -34 c2 -14 0 -15 -12 -5 -17 14 -19 32
-2 27 6 -2 12 -12 14 -22z m134 -21 c0 -7 -30 -13 -34 -7 -3 4 4 9 15 9 10 1
19 0 19 -2z"/>
<path d="M1798 1119 c-12 -8 -11 -10 12 -13 6 0 10 -5 9 -11 0 -5 -7 -9 -15
-7 -8 2 -14 -2 -14 -8 0 -5 3 -9 8 -9 19 3 33 -2 27 -11 -3 -5 0 -7 8 -4 22 8
49 -34 36 -58 -5 -10 -14 -16 -19 -13 -5 3 -2 -8 8 -24 9 -17 21 -31 27 -31 5
0 4 5 -3 12 -16 16 -15 33 1 19 10 -7 17 -7 24 0 15 15 34 2 26 -16 -6 -18 11
-20 25 -2 7 8 7 17 -1 28 -14 18 -47 21 -47 5 0 -6 -5 -4 -10 4 -7 11 -10 11
-10 2 0 -7 -5 -10 -11 -7 -7 5 -5 13 6 25 10 11 12 21 7 24 -11 7 -4 46 8 46
5 0 7 -11 6 -24 -2 -18 1 -23 13 -19 13 3 12 2 -1 -7 -10 -6 -18 -16 -18 -21
0 -6 6 -7 13 -2 6 4 15 8 20 9 4 1 10 2 14 3 3 0 -4 12 -17 26 -16 17 -19 25
-9 25 9 1 6 7 -10 20 -24 21 -46 17 -37 -6 3 -7 0 -16 -6 -20 -7 -5 -8 -2 -3
6 6 9 4 11 -5 5 -9 -5 -11 -4 -6 4 11 17 -38 61 -56 50z m151 -153 c9 -11 9
-16 -1 -22 -7 -4 -10 -4 -6 1 4 4 3 14 -3 22 -6 7 -9 13 -6 13 2 0 10 -6 16
-14z"/>
<path d="M1936 912 c-3 -5 1 -9 9 -9 8 0 12 4 9 9 -3 4 -7 8 -9 8 -2 0 -6 -4
-9 -8z"/>
<path d="M1815 910 c-4 -11 -11 -20 -16 -20 -5 0 -9 -5 -9 -10 0 -6 8 -5 19 2
11 7 17 16 15 20 -8 12 11 9 24 -4 7 -7 12 -8 12 -2 0 5 -9 15 -19 21 -17 11
-21 9 -26 -7z"/>
<path d="M1775 899 c-11 -16 -1 -19 13 -3 7 8 8 14 3 14 -5 0 -13 -5 -16 -11z"/>
<path d="M1830 870 c0 -5 7 -7 15 -4 8 4 15 8 15 10 0 2 -7 4 -15 4 -8 0 -15
-4 -15 -10z"/>
<path d="M1999 878 c0 -2 -2 -10 -4 -18 -2 -8 -5 -22 -7 -30 -3 -8 -3 -12 -1
-8 2 4 12 4 21 1 12 -3 13 -2 5 4 -7 5 -11 19 -8 31 2 12 2 22 -1 22 -2 0 -4
-1 -5 -2z"/>
<path d="M1755 860 c3 -5 8 -10 11 -10 2 0 4 5 4 10 0 6 -5 10 -11 10 -5 0 -7
-4 -4 -10z"/>
<path d="M1804 859 c-3 -6 -2 -15 4 -21 6 -6 12 -6 17 3 6 8 4 10 -5 4 -10 -6
-12 -4 -7 8 7 19 2 23 -9 6z"/>
<path d="M1855 830 c6 -10 4 -12 -8 -7 -10 3 -17 2 -17 -3 0 -13 27 -13 35 -1
3 5 0 13 -6 17 -8 5 -9 3 -4 -6z"/>
<path d="M1940 830 c0 -5 0 -13 1 -16 0 -4 -5 -11 -13 -16 -11 -8 -10 -9 1 -6
13 4 28 48 16 48 -3 0 -5 -4 -5 -10z"/>
<path d="M1874 795 c3 -23 12 -26 13 -5 1 11 -2 20 -7 20 -4 0 -7 -7 -6 -15z"/>
<path d="M1975 791 c-4 -7 0 -8 11 -4 11 4 15 3 10 -5 -9 -15 14 -26 27 -13 9
9 8 11 -6 5 -12 -4 -17 -2 -15 6 4 16 -18 25 -27 11z"/>
<path d="M1940 780 c-9 -6 -10 -10 -3 -10 6 0 15 5 18 10 8 12 4 12 -15 0z"/>
<path d="M1907 767 c-3 -8 1 -14 8 -14 7 0 11 6 8 14 -3 7 -6 13 -8 13 -2 0
-5 -6 -8 -13z"/>
<path d="M1867 759 c7 -7 15 -10 18 -7 3 3 -2 9 -12 12 -14 6 -15 5 -6 -5z"/>
<path d="M1960 766 c0 -2 7 -7 16 -10 8 -3 12 -2 9 4 -6 10 -25 14 -25 6z"/>
<path d="M2014 705 c0 -13 3 -22 7 -19 8 4 6 30 -2 38 -3 3 -5 -5 -5 -19z"/>
<path d="M1926 705 c-11 -8 -15 -15 -9 -15 6 0 16 7 23 15 16 19 11 19 -14 0z"/>
<path d="M1970 706 c0 -8 4 -17 9 -20 5 -4 7 3 4 14 -6 23 -13 26 -13 6z"/>
<path d="M1950 658 c0 -4 4 -8 9 -8 6 0 12 4 15 8 3 5 -1 9 -9 9 -8 0 -15 -4
-15 -9z"/>
<path d="M2030 580 c0 -5 5 -10 11 -10 5 0 7 5 4 10 -3 6 -8 10 -11 10 -2 0
-4 -4 -4 -10z"/>
</g>
</svg>
